HIERARCHY
ROOT Hips
{
	OFFSET 0.00000 0.00000 0.00000
	CHANNELS 6 Xposition Yposition Zposition Zrotation Yrotation Xrotation 
	JOINT LHipJoint
	{
		OFFSET 0 0 0
		CHANNELS 3 Zrotation Yrotation Xrotation
		JOINT LeftHip
		{
			OFFSET 1.37590 -1.78394 0.89329
			CHANNELS 3 Zrotation Yrotation Xrotation
			JOINT LeftKnee
			{
				OFFSET 2.47928 -6.81178 0.00000
				CHANNELS 3 Zrotation Yrotation Xrotation
				JOINT LeftAnkle
				{
					OFFSET 2.63345 -7.23535 0.00000
					CHANNELS 3 Zrotation Yrotation Xrotation
					JOINT LeftToe
					{
						OFFSET 0.23938 -0.65768 2.27012
						CHANNELS 3 Zrotation Yrotation Xrotation
						End Site
						{
							OFFSET 0.00000 -0.00000 1.18363
						}
					}
				}
			}
		}
	}
	JOINT RHipJoint
	{
		OFFSET 0 0 0
		CHANNELS 3 Zrotation Yrotation Xrotation
		JOINT RightHip
		{
			OFFSET -1.33617 -1.78394 0.89329
			CHANNELS 3 Zrotation Yrotation Xrotation
			JOINT RightKnee
			{
				OFFSET -2.56922 -7.05888 0.00000
				CHANNELS 3 Zrotation Yrotation Xrotation
				JOINT RightAnkle
				{
					OFFSET -2.56568 -7.04915 0.00000
					CHANNELS 3 Zrotation Yrotation Xrotation
					JOINT RightToe
					{
						OFFSET -0.27533 -0.75646 2.18105
						CHANNELS 3 Zrotation Yrotation Xrotation
						End Site
						{
							OFFSET -0.00000 -0.00000 1.15233
						}
					}
				}
			}
		}
	}
	JOINT lowerback
	{
		OFFSET 0 0 0
		CHANNELS 3 Zrotation Yrotation Xrotation
		JOINT Chest
		{
			OFFSET 0.06190 2.15152 -0.00935
			CHANNELS 3 Zrotation Yrotation Xrotation
			JOINT Chest2
			{
				OFFSET 0.06334 2.15332 0.00872
				CHANNELS 3 Zrotation Yrotation Xrotation
				JOINT lowerneck
				{
					OFFSET 0 0 0
					CHANNELS 3 Zrotation Yrotation Xrotation
					JOINT Neck
					{
						OFFSET -0.04202 1.66908 0.23524
						CHANNELS 3 Zrotation Yrotation Xrotation
						JOINT Head
						{
							OFFSET 0.07510 1.69357 -0.24440
							CHANNELS 3 Zrotation Yrotation Xrotation
							End Site
							{
								OFFSET 0.02556 1.71719 -0.11000
							}
						}
					}
				}
				JOINT LeftCollar
				{
					OFFSET 0 0 0
					CHANNELS 3 Zrotation Yrotation Xrotation
					JOINT LeftShoulder
					{
						OFFSET 3.67168 1.26306 -0.41342
CHANNELS 3 Zrotation Xrotation Yrotation
						JOINT LeftElbow
						{
OFFSET 0 -4.685100 -0.000000
CHANNELS 3 Zrotation Xrotation Yrotation
							JOINT LeftWrist
							{
OFFSET 0 -3.396260 -0.000000
CHANNELS 3 Zrotation Xrotation Yrotation
								JOINT lhand
								{
									OFFSET 0 0 0
CHANNELS 3 Zrotation Xrotation Yrotation
									JOINT LFingers
									{
OFFSET 0 -0.486080 -0.000000
CHANNELS 3 Zrotation Xrotation Yrotation
										End Site
										{
OFFSET 0 -0.391890 -0.000000
										}
									}
								}
								JOINT LThumb
								{
OFFSET 0 0.000000 0.000000
CHANNELS 3 Zrotation Xrotation Yrotation
									End Site
									{
OFFSET 0 -0.397870 0.397870
									}
								}
							}
						}
					}
				}
				JOINT RightCollar
				{
					OFFSET 0 0 0
					CHANNELS 3 Zrotation Yrotation Xrotation
					JOINT RightShoulder
					{
						OFFSET -3.04136 1.42992 -0.76390
CHANNELS 3 Zrotation Xrotation Yrotation
						JOINT RightElbow
						{
OFFSET 0 -5.555760 -0.000000
CHANNELS 3 Zrotation Xrotation Yrotation
							JOINT RightWrist
							{
OFFSET 0 -3.327740 -0.000000
CHANNELS 3 Zrotation Xrotation Yrotation
								JOINT rhand
								{
									OFFSET 0 0 0
CHANNELS 3 Zrotation Xrotation Yrotation
									JOINT RFingers
									{
OFFSET 0 -0.507630 -0.000000
CHANNELS 3 Zrotation Xrotation Yrotation
										End Site
										{
OFFSET 0 -0.409260 -0.000000
										}
									}
								}
								JOINT RThumb
								{
OFFSET 0 0.000000 0.000000
CHANNELS 3 Zrotation Xrotation Yrotation
									End Site
									{
OFFSET 0 -0.415510 0.415510
									}
								}
							}
						}
					}
				}
			}
		}
	}
}
MOTION
Frames: 4
Frame Time: 0.008333333333333333
41.189000 17.859200 6.087200 -112.833000 -84.327300 120.845000 0.000000 0.000000 0.000000 -13.320000 -5.250300 -5.540600 0.394000 4.030500 11.162500 0.301700 -0.187300 -10.311300 0.103900 2.078100 5.721600 0.000000 0.000000 0.000000 26.110900 5.633000 -7.234900 -0.617500 -5.029200 13.991800 -0.197200 -6.043200 -12.718700 -0.390300 -4.011400 11.108800 4.109100 -0.099700 -5.471200 3.084400 -0.476500 -2.319100 0.838800 -0.291100 0.674100 -7.280600 -5.739300 -22.060000 10.761200 -7.470300 10.987400 3.780000 -2.902000 7.680700 -0.000000 -0.000000 0.000000 -3.417300 3.604700 -8.840500 12.108600 -19.967300 2.139200 8.756400 34.789100 -16.998100 0.000000 0.000000 0.000000 -7.125000 0.000000 0.000000 -17.993800 46.347000 0.617900 -0.000000 -0.000000 0.000000 -7.585600 -2.732100 14.833400 -13.337600 -21.779900 -2.577200 -15.730700 17.453000 21.434100 0.000000 0.000000 0.000000 7.125000 0.000000 -0.000000 13.184100 51.693400 -2.205100
41.184333 17.859727 6.083059 -112.423925 -84.358346 120.422456 0.000000 0.000000 0.000000 -13.328734 -5.266907 -5.459198 0.388726 4.003488 11.086426 0.298120 -0.153959 -10.260924 0.110906 2.147005 5.912125 0.000000 0.000000 0.000000 26.133500 5.662111 -7.176244 -0.615559 -5.021324 13.969498 -0.179503 -6.178210 -12.557286 -0.442177 -4.265934 11.826221 3.985063 -0.148121 -5.283858 3.149571 -0.499114 -3.497561 0.982461 -0.341199 -0.643321 -7.744873 -5.310769 -17.292513 10.961983 -6.978627 9.815614 4.037658 -2.836900 6.488627 0.000000 0.000000 0.000000 -3.503338 6.309231 -8.896768 12.333587 -20.302984 2.216705 8.700266 34.515715 -17.176916 0.000000 0.000000 0.000000 -7.125000 0.000000 0.000000 -18.110979 46.510798 0.697729 0.000000 0.000000 0.000000 -7.708452 -0.147411 15.437082 -13.582712 -22.135007 -2.668895 -15.605821 16.997927 21.472593 0.000000 0.000000 0.000000 7.125000 0.000000 0.000000 13.321582 51.710559 -2.234423
41.180285 17.859953 6.079105 -111.615840 -84.411102 119.599497 0.000000 0.000000 0.000000 -13.351063 -5.326124 -5.383402 0.384145 3.980219 11.021086 0.298419 -0.144191 -10.269189 0.106525 2.104387 5.794160 0.000000 0.000000 0.000000 26.151441 5.658870 -7.121734 -0.611632 -5.005526 13.924246 -0.159213 -6.334761 -12.370613 -0.492071 -4.497091 12.479574 3.903558 -0.154554 -5.272693 3.185081 -0.505575 -3.398869 1.063438 -0.339651 -0.546586 -7.742719 -5.346713 -17.790173 10.889583 -6.999363 9.993829 4.005564 -2.833330 6.627187 0.000000 0.000000 0.000000 -3.504820 6.041509 -8.861737 12.316018 -20.276896 2.210570 8.710133 34.588424 -17.112653 0.000000 0.000000 0.000000 -7.125000 0.000000 0.000000 -18.078129 46.450748 0.668741 0.000000 0.000000 0.000000 -7.783841 -0.392486 15.322292 -13.611109 -22.176030 -2.679579 -15.451528 16.788666 21.348992 0.000000 0.000000 0.000000 7.125000 0.000000 0.000000 13.421315 51.562012 -2.202256
41.175897 17.859900 6.074698 -110.567224 -84.447297 118.533820 0.000000 0.000000 0.000000 -13.346582 -5.374510 -5.324009 0.381039 3.964233 10.976081 0.296699 -0.123591 -10.245972 0.103941 2.079171 5.724469 0.000000 0.000000 0.000000 26.200706 5.667728 -7.050432 -0.607538 -4.989032 13.877357 -0.147359 -6.475029 -12.313715 -0.525007 -4.643511 12.894467 3.977481 -0.190901 -5.142683 3.147741 -0.548348 -3.309584 0.982062 -0.359643 -0.528773 -7.715308 -5.376010 -18.558946 10.880533 -7.028917 10.348414 3.987118 -2.816803 6.871190 0.000000 0.000000 0.000000 -3.360564 5.769721 -8.865641 12.317433 -20.279019 2.211111 8.935090 34.478502 -17.011705 0.000000 0.000000 0.000000 -7.125000 0.000000 0.000000 -17.838564 46.382172 0.629799 0.000000 0.000000 0.000000 -7.723249 -0.656459 15.336811 -13.626783 -22.198675 -2.685473 -15.550552 16.860240 21.499026 0.000000 0.000000 0.000000 7.125000 0.000000 0.000000 13.386413 51.727294 -2.251217
